<mxfile host="app.diagrams.net" modified="2023-12-23T15:01:34.068Z" agent="Mozilla/5.0 (Windows NT 10.0; Win64; x64) AppleWebKit/537.36 (KHTML, like Gecko) Chrome/120.0.0.0 Safari/537.36 Edg/120.0.0.0" etag="OK5WsQw-yJuqlInMVir2" version="22.1.11" type="device">
  <diagram id="C5RBs43oDa-KdzZeNtuy" name="Page-1">
    <mxGraphModel dx="1063" dy="481" grid="1" gridSize="10" guides="1" tooltips="1" connect="1" arrows="1" fold="1" page="1" pageScale="1" pageWidth="827" pageHeight="1169" math="0" shadow="0">
      <root>
        <mxCell id="WIyWlLk6GJQsqaUBKTNV-0" />
        <mxCell id="WIyWlLk6GJQsqaUBKTNV-1" parent="WIyWlLk6GJQsqaUBKTNV-0" />
        <mxCell id="bP3Uv2tgkUZrPzE7TXMd-1" value="클라이언트(고객)" style="swimlane;whiteSpace=wrap;html=1;fontSize=16;" vertex="1" parent="WIyWlLk6GJQsqaUBKTNV-1">
          <mxGeometry x="270" y="440" width="1030" height="1250" as="geometry" />
        </mxCell>
        <mxCell id="bP3Uv2tgkUZrPzE7TXMd-3" value="시작(서버 접속)" style="ellipse;whiteSpace=wrap;html=1;fontSize=16;" vertex="1" parent="bP3Uv2tgkUZrPzE7TXMd-1">
          <mxGeometry x="785" y="40" width="120" height="80" as="geometry" />
        </mxCell>
        <mxCell id="bP3Uv2tgkUZrPzE7TXMd-4" value="printmenu()" style="shape=process;whiteSpace=wrap;html=1;backgroundOutline=1;fontSize=16;" vertex="1" parent="bP3Uv2tgkUZrPzE7TXMd-1">
          <mxGeometry x="785" y="480" width="120" height="60" as="geometry" />
        </mxCell>
        <mxCell id="bP3Uv2tgkUZrPzE7TXMd-9" value="printlist()" style="shape=process;whiteSpace=wrap;html=1;backgroundOutline=1;fontSize=16;" vertex="1" parent="bP3Uv2tgkUZrPzE7TXMd-1">
          <mxGeometry x="785" y="580" width="120" height="60" as="geometry" />
        </mxCell>
        <mxCell id="bP3Uv2tgkUZrPzE7TXMd-20" style="edgeStyle=none;curved=1;rounded=0;orthogonalLoop=1;jettySize=auto;html=1;exitX=0.5;exitY=1;exitDx=0;exitDy=0;entryX=0.5;entryY=0;entryDx=0;entryDy=0;fontSize=12;startSize=8;endSize=8;" edge="1" parent="bP3Uv2tgkUZrPzE7TXMd-1" source="bP3Uv2tgkUZrPzE7TXMd-4" target="bP3Uv2tgkUZrPzE7TXMd-9">
          <mxGeometry relative="1" as="geometry" />
        </mxCell>
        <mxCell id="bP3Uv2tgkUZrPzE7TXMd-12" value="구조체 Menu, Slist" style="shape=hexagon;perimeter=hexagonPerimeter2;whiteSpace=wrap;html=1;fixedSize=1;fontSize=16;" vertex="1" parent="bP3Uv2tgkUZrPzE7TXMd-1">
          <mxGeometry x="785" y="160" width="120" height="80" as="geometry" />
        </mxCell>
        <mxCell id="bP3Uv2tgkUZrPzE7TXMd-14" style="edgeStyle=none;curved=1;rounded=0;orthogonalLoop=1;jettySize=auto;html=1;exitX=0.5;exitY=1;exitDx=0;exitDy=0;entryX=0.5;entryY=0;entryDx=0;entryDy=0;fontSize=12;startSize=8;endSize=8;" edge="1" parent="bP3Uv2tgkUZrPzE7TXMd-1" source="bP3Uv2tgkUZrPzE7TXMd-3" target="bP3Uv2tgkUZrPzE7TXMd-12">
          <mxGeometry relative="1" as="geometry" />
        </mxCell>
        <mxCell id="bP3Uv2tgkUZrPzE7TXMd-15" value="메뉴 정보 수신" style="shape=parallelogram;perimeter=parallelogramPerimeter;whiteSpace=wrap;html=1;fixedSize=1;fontSize=16;" vertex="1" parent="bP3Uv2tgkUZrPzE7TXMd-1">
          <mxGeometry x="785" y="280" width="120" height="60" as="geometry" />
        </mxCell>
        <mxCell id="bP3Uv2tgkUZrPzE7TXMd-16" style="edgeStyle=none;curved=1;rounded=0;orthogonalLoop=1;jettySize=auto;html=1;exitX=0.5;exitY=1;exitDx=0;exitDy=0;entryX=0.5;entryY=0;entryDx=0;entryDy=0;fontSize=12;startSize=8;endSize=8;" edge="1" parent="bP3Uv2tgkUZrPzE7TXMd-1" source="bP3Uv2tgkUZrPzE7TXMd-12" target="bP3Uv2tgkUZrPzE7TXMd-15">
          <mxGeometry relative="1" as="geometry" />
        </mxCell>
        <mxCell id="bP3Uv2tgkUZrPzE7TXMd-19" style="edgeStyle=none;curved=1;rounded=0;orthogonalLoop=1;jettySize=auto;html=1;exitX=0.5;exitY=1;exitDx=0;exitDy=0;entryX=0.5;entryY=0;entryDx=0;entryDy=0;fontSize=12;startSize=8;endSize=8;" edge="1" parent="bP3Uv2tgkUZrPzE7TXMd-1" source="bP3Uv2tgkUZrPzE7TXMd-17" target="bP3Uv2tgkUZrPzE7TXMd-4">
          <mxGeometry relative="1" as="geometry" />
        </mxCell>
        <mxCell id="bP3Uv2tgkUZrPzE7TXMd-17" value="Menu에 저장" style="rounded=0;whiteSpace=wrap;html=1;fontSize=16;" vertex="1" parent="bP3Uv2tgkUZrPzE7TXMd-1">
          <mxGeometry x="785" y="380" width="120" height="60" as="geometry" />
        </mxCell>
        <mxCell id="bP3Uv2tgkUZrPzE7TXMd-18" style="edgeStyle=none;curved=1;rounded=0;orthogonalLoop=1;jettySize=auto;html=1;exitX=0.5;exitY=1;exitDx=0;exitDy=0;entryX=0.5;entryY=0;entryDx=0;entryDy=0;fontSize=12;startSize=8;endSize=8;" edge="1" parent="bP3Uv2tgkUZrPzE7TXMd-1" source="bP3Uv2tgkUZrPzE7TXMd-15" target="bP3Uv2tgkUZrPzE7TXMd-17">
          <mxGeometry relative="1" as="geometry" />
        </mxCell>
        <mxCell id="bP3Uv2tgkUZrPzE7TXMd-22" value="Menu.menu, Menu.price출력" style="shape=document;whiteSpace=wrap;html=1;boundedLbl=1;fontSize=16;" vertex="1" parent="bP3Uv2tgkUZrPzE7TXMd-1">
          <mxGeometry x="625" y="480" width="120" height="80" as="geometry" />
        </mxCell>
        <mxCell id="bP3Uv2tgkUZrPzE7TXMd-23" style="edgeStyle=none;curved=1;rounded=0;orthogonalLoop=1;jettySize=auto;html=1;exitX=0;exitY=0.5;exitDx=0;exitDy=0;entryX=0.988;entryY=0.375;entryDx=0;entryDy=0;entryPerimeter=0;fontSize=12;startSize=8;endSize=8;dashed=1;" edge="1" parent="bP3Uv2tgkUZrPzE7TXMd-1" source="bP3Uv2tgkUZrPzE7TXMd-4" target="bP3Uv2tgkUZrPzE7TXMd-22">
          <mxGeometry relative="1" as="geometry" />
        </mxCell>
        <mxCell id="bP3Uv2tgkUZrPzE7TXMd-24" value="Slist.menu,Slist.price Slist.tprice 출력" style="shape=document;whiteSpace=wrap;html=1;boundedLbl=1;fontSize=16;" vertex="1" parent="bP3Uv2tgkUZrPzE7TXMd-1">
          <mxGeometry x="595" y="580" width="150" height="80" as="geometry" />
        </mxCell>
        <mxCell id="bP3Uv2tgkUZrPzE7TXMd-25" style="edgeStyle=none;curved=1;rounded=0;orthogonalLoop=1;jettySize=auto;html=1;exitX=0;exitY=0.5;exitDx=0;exitDy=0;entryX=0.988;entryY=0.375;entryDx=0;entryDy=0;entryPerimeter=0;fontSize=12;startSize=8;endSize=8;dashed=1;" edge="1" parent="bP3Uv2tgkUZrPzE7TXMd-1" source="bP3Uv2tgkUZrPzE7TXMd-9" target="bP3Uv2tgkUZrPzE7TXMd-24">
          <mxGeometry relative="1" as="geometry" />
        </mxCell>
        <mxCell id="bP3Uv2tgkUZrPzE7TXMd-29" style="edgeStyle=orthogonalEdgeStyle;rounded=0;orthogonalLoop=1;jettySize=auto;html=1;exitX=1;exitY=0.5;exitDx=0;exitDy=0;fontSize=12;startSize=8;endSize=8;" edge="1" parent="bP3Uv2tgkUZrPzE7TXMd-1" source="bP3Uv2tgkUZrPzE7TXMd-26">
          <mxGeometry relative="1" as="geometry">
            <mxPoint x="845" y="460" as="targetPoint" />
            <Array as="points">
              <mxPoint x="945" y="720" />
              <mxPoint x="945" y="460" />
            </Array>
          </mxGeometry>
        </mxCell>
        <mxCell id="bP3Uv2tgkUZrPzE7TXMd-26" value="mnum" style="rhombus;whiteSpace=wrap;html=1;fontSize=16;" vertex="1" parent="bP3Uv2tgkUZrPzE7TXMd-1">
          <mxGeometry x="805" y="680" width="80" height="80" as="geometry" />
        </mxCell>
        <mxCell id="bP3Uv2tgkUZrPzE7TXMd-21" style="edgeStyle=none;curved=1;rounded=0;orthogonalLoop=1;jettySize=auto;html=1;exitX=0.5;exitY=1;exitDx=0;exitDy=0;entryX=0.5;entryY=0;entryDx=0;entryDy=0;fontSize=12;startSize=8;endSize=8;" edge="1" parent="bP3Uv2tgkUZrPzE7TXMd-1" source="bP3Uv2tgkUZrPzE7TXMd-9" target="bP3Uv2tgkUZrPzE7TXMd-26">
          <mxGeometry relative="1" as="geometry">
            <mxPoint x="845" y="680" as="targetPoint" />
          </mxGeometry>
        </mxCell>
        <mxCell id="bP3Uv2tgkUZrPzE7TXMd-30" value="wrong num" style="text;html=1;align=center;verticalAlign=middle;resizable=0;points=[];autosize=1;strokeColor=none;fillColor=none;fontSize=16;" vertex="1" parent="bP3Uv2tgkUZrPzE7TXMd-1">
          <mxGeometry x="885" y="710" width="100" height="30" as="geometry" />
        </mxCell>
        <mxCell id="bP3Uv2tgkUZrPzE7TXMd-32" value="메뉴번호" style="text;html=1;align=center;verticalAlign=middle;resizable=0;points=[];autosize=1;strokeColor=none;fillColor=none;fontSize=16;" vertex="1" parent="bP3Uv2tgkUZrPzE7TXMd-1">
          <mxGeometry x="735" y="690" width="90" height="30" as="geometry" />
        </mxCell>
        <mxCell id="bP3Uv2tgkUZrPzE7TXMd-33" value="0" style="text;html=1;align=center;verticalAlign=middle;resizable=0;points=[];autosize=1;strokeColor=none;fillColor=none;fontSize=16;" vertex="1" parent="bP3Uv2tgkUZrPzE7TXMd-1">
          <mxGeometry x="835" y="890" width="30" height="30" as="geometry" />
        </mxCell>
        <mxCell id="bP3Uv2tgkUZrPzE7TXMd-35" value="pay()" style="shape=process;whiteSpace=wrap;html=1;backgroundOutline=1;fontSize=16;" vertex="1" parent="bP3Uv2tgkUZrPzE7TXMd-1">
          <mxGeometry x="685" y="880" width="120" height="60" as="geometry" />
        </mxCell>
        <mxCell id="bP3Uv2tgkUZrPzE7TXMd-38" style="edgeStyle=none;rounded=0;orthogonalLoop=1;jettySize=auto;html=1;exitX=0.5;exitY=1;exitDx=0;exitDy=0;entryX=1;entryY=0.5;entryDx=0;entryDy=0;fontSize=12;startSize=8;endSize=8;" edge="1" parent="bP3Uv2tgkUZrPzE7TXMd-1" source="bP3Uv2tgkUZrPzE7TXMd-26" target="bP3Uv2tgkUZrPzE7TXMd-35">
          <mxGeometry relative="1" as="geometry">
            <Array as="points">
              <mxPoint x="845" y="910" />
            </Array>
          </mxGeometry>
        </mxCell>
        <mxCell id="bP3Uv2tgkUZrPzE7TXMd-36" value="addmenu(mnum)" style="shape=process;whiteSpace=wrap;html=1;backgroundOutline=1;fontSize=16;" vertex="1" parent="bP3Uv2tgkUZrPzE7TXMd-1">
          <mxGeometry x="595" y="690" width="150" height="60" as="geometry" />
        </mxCell>
        <mxCell id="bP3Uv2tgkUZrPzE7TXMd-37" style="edgeStyle=none;curved=1;rounded=0;orthogonalLoop=1;jettySize=auto;html=1;exitX=0;exitY=0.5;exitDx=0;exitDy=0;entryX=1;entryY=0.5;entryDx=0;entryDy=0;fontSize=12;startSize=8;endSize=8;" edge="1" parent="bP3Uv2tgkUZrPzE7TXMd-1" source="bP3Uv2tgkUZrPzE7TXMd-26" target="bP3Uv2tgkUZrPzE7TXMd-36">
          <mxGeometry relative="1" as="geometry" />
        </mxCell>
        <mxCell id="bP3Uv2tgkUZrPzE7TXMd-39" value="Slist.menu에 Menu.menu[mnum] 추가" style="rounded=0;whiteSpace=wrap;html=1;fontSize=16;" vertex="1" parent="bP3Uv2tgkUZrPzE7TXMd-1">
          <mxGeometry x="415" y="690" width="140" height="60" as="geometry" />
        </mxCell>
        <mxCell id="bP3Uv2tgkUZrPzE7TXMd-40" style="edgeStyle=none;curved=1;rounded=0;orthogonalLoop=1;jettySize=auto;html=1;exitX=0;exitY=0.5;exitDx=0;exitDy=0;entryX=1;entryY=0.5;entryDx=0;entryDy=0;fontSize=12;startSize=8;endSize=8;dashed=1;" edge="1" parent="bP3Uv2tgkUZrPzE7TXMd-1" source="bP3Uv2tgkUZrPzE7TXMd-36" target="bP3Uv2tgkUZrPzE7TXMd-39">
          <mxGeometry relative="1" as="geometry" />
        </mxCell>
        <mxCell id="bP3Uv2tgkUZrPzE7TXMd-41" value="Slist.price에 Menu.price[mnum]추가" style="rounded=0;whiteSpace=wrap;html=1;fontSize=16;" vertex="1" parent="bP3Uv2tgkUZrPzE7TXMd-1">
          <mxGeometry x="235" y="690" width="137" height="60" as="geometry" />
        </mxCell>
        <mxCell id="bP3Uv2tgkUZrPzE7TXMd-42" style="edgeStyle=none;curved=1;rounded=0;orthogonalLoop=1;jettySize=auto;html=1;exitX=0;exitY=0.5;exitDx=0;exitDy=0;entryX=1;entryY=0.5;entryDx=0;entryDy=0;fontSize=12;startSize=8;endSize=8;" edge="1" parent="bP3Uv2tgkUZrPzE7TXMd-1" source="bP3Uv2tgkUZrPzE7TXMd-39" target="bP3Uv2tgkUZrPzE7TXMd-41">
          <mxGeometry relative="1" as="geometry" />
        </mxCell>
        <mxCell id="bP3Uv2tgkUZrPzE7TXMd-43" value="Slist.tprice += Menu.price[mnum]" style="rounded=0;whiteSpace=wrap;html=1;fontSize=16;" vertex="1" parent="bP3Uv2tgkUZrPzE7TXMd-1">
          <mxGeometry x="65" y="690" width="130" height="60" as="geometry" />
        </mxCell>
        <mxCell id="bP3Uv2tgkUZrPzE7TXMd-44" style="edgeStyle=none;curved=1;rounded=0;orthogonalLoop=1;jettySize=auto;html=1;exitX=0;exitY=0.5;exitDx=0;exitDy=0;entryX=1;entryY=0.5;entryDx=0;entryDy=0;fontSize=12;startSize=8;endSize=8;" edge="1" parent="bP3Uv2tgkUZrPzE7TXMd-1" source="bP3Uv2tgkUZrPzE7TXMd-41" target="bP3Uv2tgkUZrPzE7TXMd-43">
          <mxGeometry relative="1" as="geometry" />
        </mxCell>
        <mxCell id="bP3Uv2tgkUZrPzE7TXMd-45" value="Slist 구조체 정보 전송" style="shape=document;whiteSpace=wrap;html=1;boundedLbl=1;fontSize=16;" vertex="1" parent="bP3Uv2tgkUZrPzE7TXMd-1">
          <mxGeometry x="685" y="980" width="120" height="80" as="geometry" />
        </mxCell>
        <mxCell id="bP3Uv2tgkUZrPzE7TXMd-66" style="edgeStyle=none;curved=1;rounded=0;orthogonalLoop=1;jettySize=auto;html=1;exitX=0.5;exitY=1;exitDx=0;exitDy=0;entryX=0.5;entryY=0;entryDx=0;entryDy=0;fontSize=12;startSize=8;endSize=8;" edge="1" parent="bP3Uv2tgkUZrPzE7TXMd-1" source="bP3Uv2tgkUZrPzE7TXMd-35" target="bP3Uv2tgkUZrPzE7TXMd-45">
          <mxGeometry relative="1" as="geometry" />
        </mxCell>
        <mxCell id="bP3Uv2tgkUZrPzE7TXMd-47" value="printlist()" style="shape=process;whiteSpace=wrap;html=1;backgroundOutline=1;fontSize=16;" vertex="1" parent="bP3Uv2tgkUZrPzE7TXMd-1">
          <mxGeometry x="525" y="880" width="120" height="60" as="geometry" />
        </mxCell>
        <mxCell id="bP3Uv2tgkUZrPzE7TXMd-48" style="edgeStyle=none;curved=1;rounded=0;orthogonalLoop=1;jettySize=auto;html=1;exitX=0;exitY=0.5;exitDx=0;exitDy=0;entryX=1;entryY=0.5;entryDx=0;entryDy=0;fontSize=12;startSize=8;endSize=8;strokeColor=default;dashed=1;" edge="1" parent="bP3Uv2tgkUZrPzE7TXMd-1" source="bP3Uv2tgkUZrPzE7TXMd-35" target="bP3Uv2tgkUZrPzE7TXMd-47">
          <mxGeometry relative="1" as="geometry" />
        </mxCell>
        <mxCell id="bP3Uv2tgkUZrPzE7TXMd-49" value="Slist.name, Slist.phone입력" style="shape=parallelogram;perimeter=parallelogramPerimeter;whiteSpace=wrap;html=1;fixedSize=1;fontSize=16;" vertex="1" parent="bP3Uv2tgkUZrPzE7TXMd-1">
          <mxGeometry x="345" y="880" width="140" height="60" as="geometry" />
        </mxCell>
        <mxCell id="bP3Uv2tgkUZrPzE7TXMd-50" style="edgeStyle=none;curved=1;rounded=0;orthogonalLoop=1;jettySize=auto;html=1;exitX=0;exitY=0.5;exitDx=0;exitDy=0;entryX=1;entryY=0.5;entryDx=0;entryDy=0;fontSize=12;startSize=8;endSize=8;" edge="1" parent="bP3Uv2tgkUZrPzE7TXMd-1" source="bP3Uv2tgkUZrPzE7TXMd-47" target="bP3Uv2tgkUZrPzE7TXMd-49">
          <mxGeometry relative="1" as="geometry" />
        </mxCell>
        <mxCell id="bP3Uv2tgkUZrPzE7TXMd-51" value="Slist.pay입력" style="shape=parallelogram;perimeter=parallelogramPerimeter;whiteSpace=wrap;html=1;fixedSize=1;fontSize=16;" vertex="1" parent="bP3Uv2tgkUZrPzE7TXMd-1">
          <mxGeometry x="185" y="880" width="120" height="60" as="geometry" />
        </mxCell>
        <mxCell id="bP3Uv2tgkUZrPzE7TXMd-52" style="edgeStyle=none;curved=1;rounded=0;orthogonalLoop=1;jettySize=auto;html=1;exitX=0;exitY=0.5;exitDx=0;exitDy=0;entryX=1;entryY=0.5;entryDx=0;entryDy=0;fontSize=12;startSize=8;endSize=8;" edge="1" parent="bP3Uv2tgkUZrPzE7TXMd-1" source="bP3Uv2tgkUZrPzE7TXMd-49" target="bP3Uv2tgkUZrPzE7TXMd-51">
          <mxGeometry relative="1" as="geometry" />
        </mxCell>
        <mxCell id="bP3Uv2tgkUZrPzE7TXMd-53" value="modifymenu()" style="shape=process;whiteSpace=wrap;html=1;backgroundOutline=1;fontSize=16;" vertex="1" parent="bP3Uv2tgkUZrPzE7TXMd-1">
          <mxGeometry x="685" y="790" width="120" height="60" as="geometry" />
        </mxCell>
        <mxCell id="bP3Uv2tgkUZrPzE7TXMd-54" style="edgeStyle=none;rounded=0;orthogonalLoop=1;jettySize=auto;html=1;exitX=0.5;exitY=1;exitDx=0;exitDy=0;entryX=1;entryY=0.5;entryDx=0;entryDy=0;fontSize=12;startSize=8;endSize=8;" edge="1" parent="bP3Uv2tgkUZrPzE7TXMd-1" source="bP3Uv2tgkUZrPzE7TXMd-26" target="bP3Uv2tgkUZrPzE7TXMd-53">
          <mxGeometry relative="1" as="geometry">
            <Array as="points">
              <mxPoint x="845" y="820" />
            </Array>
          </mxGeometry>
        </mxCell>
        <mxCell id="bP3Uv2tgkUZrPzE7TXMd-55" value="-1" style="text;html=1;align=center;verticalAlign=middle;resizable=0;points=[];autosize=1;strokeColor=none;fillColor=none;fontSize=16;" vertex="1" parent="bP3Uv2tgkUZrPzE7TXMd-1">
          <mxGeometry x="805" y="818" width="40" height="30" as="geometry" />
        </mxCell>
        <mxCell id="bP3Uv2tgkUZrPzE7TXMd-58" style="edgeStyle=none;curved=1;rounded=0;orthogonalLoop=1;jettySize=auto;html=1;exitX=0;exitY=0.5;exitDx=0;exitDy=0;entryX=1;entryY=0.5;entryDx=0;entryDy=0;fontSize=12;startSize=8;endSize=8;strokeColor=default;dashed=1;" edge="1" parent="bP3Uv2tgkUZrPzE7TXMd-1" target="bP3Uv2tgkUZrPzE7TXMd-59" source="bP3Uv2tgkUZrPzE7TXMd-53">
          <mxGeometry relative="1" as="geometry">
            <mxPoint x="685" y="820" as="sourcePoint" />
          </mxGeometry>
        </mxCell>
        <mxCell id="bP3Uv2tgkUZrPzE7TXMd-59" value="printlist()" style="shape=process;whiteSpace=wrap;html=1;backgroundOutline=1;fontSize=16;" vertex="1" parent="bP3Uv2tgkUZrPzE7TXMd-1">
          <mxGeometry x="525" y="790" width="120" height="60" as="geometry" />
        </mxCell>
        <mxCell id="bP3Uv2tgkUZrPzE7TXMd-60" value="lnum 입력" style="shape=parallelogram;perimeter=parallelogramPerimeter;whiteSpace=wrap;html=1;fixedSize=1;fontSize=16;" vertex="1" parent="bP3Uv2tgkUZrPzE7TXMd-1">
          <mxGeometry x="365" y="790" width="120" height="60" as="geometry" />
        </mxCell>
        <mxCell id="bP3Uv2tgkUZrPzE7TXMd-65" style="edgeStyle=none;curved=1;rounded=0;orthogonalLoop=1;jettySize=auto;html=1;exitX=0;exitY=0.5;exitDx=0;exitDy=0;entryX=1;entryY=0.5;entryDx=0;entryDy=0;fontSize=12;startSize=8;endSize=8;" edge="1" parent="bP3Uv2tgkUZrPzE7TXMd-1" source="bP3Uv2tgkUZrPzE7TXMd-59" target="bP3Uv2tgkUZrPzE7TXMd-60">
          <mxGeometry relative="1" as="geometry" />
        </mxCell>
        <mxCell id="bP3Uv2tgkUZrPzE7TXMd-61" value="Slist.tprice -= Slist.price[lnum]" style="rounded=0;whiteSpace=wrap;html=1;fontSize=16;" vertex="1" parent="bP3Uv2tgkUZrPzE7TXMd-1">
          <mxGeometry x="205" y="790" width="120" height="60" as="geometry" />
        </mxCell>
        <mxCell id="bP3Uv2tgkUZrPzE7TXMd-62" style="edgeStyle=none;curved=1;rounded=0;orthogonalLoop=1;jettySize=auto;html=1;exitX=0;exitY=0.5;exitDx=0;exitDy=0;entryX=1;entryY=0.5;entryDx=0;entryDy=0;fontSize=12;startSize=8;endSize=8;" edge="1" parent="bP3Uv2tgkUZrPzE7TXMd-1" source="bP3Uv2tgkUZrPzE7TXMd-60" target="bP3Uv2tgkUZrPzE7TXMd-61">
          <mxGeometry relative="1" as="geometry" />
        </mxCell>
        <mxCell id="bP3Uv2tgkUZrPzE7TXMd-63" value="Slist.menu[lnum], Slist.price[lnum] 제거" style="rounded=0;whiteSpace=wrap;html=1;fontSize=16;" vertex="1" parent="bP3Uv2tgkUZrPzE7TXMd-1">
          <mxGeometry x="45" y="790" width="120" height="60" as="geometry" />
        </mxCell>
        <mxCell id="bP3Uv2tgkUZrPzE7TXMd-64" style="edgeStyle=none;curved=1;rounded=0;orthogonalLoop=1;jettySize=auto;html=1;exitX=0;exitY=0.5;exitDx=0;exitDy=0;entryX=1;entryY=0.5;entryDx=0;entryDy=0;fontSize=12;startSize=8;endSize=8;" edge="1" parent="bP3Uv2tgkUZrPzE7TXMd-1" source="bP3Uv2tgkUZrPzE7TXMd-61" target="bP3Uv2tgkUZrPzE7TXMd-63">
          <mxGeometry relative="1" as="geometry" />
        </mxCell>
        <mxCell id="bP3Uv2tgkUZrPzE7TXMd-67" value="종료(접속 종료)" style="ellipse;whiteSpace=wrap;html=1;fontSize=16;" vertex="1" parent="bP3Uv2tgkUZrPzE7TXMd-1">
          <mxGeometry x="685" y="1100" width="120" height="80" as="geometry" />
        </mxCell>
        <mxCell id="bP3Uv2tgkUZrPzE7TXMd-68" style="edgeStyle=none;rounded=0;orthogonalLoop=1;jettySize=auto;html=1;exitX=0.489;exitY=0.878;exitDx=0;exitDy=0;entryX=0.5;entryY=0;entryDx=0;entryDy=0;fontSize=12;startSize=8;endSize=8;exitPerimeter=0;" edge="1" parent="bP3Uv2tgkUZrPzE7TXMd-1" source="bP3Uv2tgkUZrPzE7TXMd-45" target="bP3Uv2tgkUZrPzE7TXMd-67">
          <mxGeometry relative="1" as="geometry">
            <Array as="points" />
          </mxGeometry>
        </mxCell>
        <mxCell id="bP3Uv2tgkUZrPzE7TXMd-2" value="서버(사장님)" style="swimlane;whiteSpace=wrap;html=1;fontSize=16;" vertex="1" parent="WIyWlLk6GJQsqaUBKTNV-1">
          <mxGeometry x="1380" y="440" width="220" height="800" as="geometry" />
        </mxCell>
        <mxCell id="bP3Uv2tgkUZrPzE7TXMd-69" value="시작(서버 오픈)" style="ellipse;whiteSpace=wrap;html=1;fontSize=16;" vertex="1" parent="bP3Uv2tgkUZrPzE7TXMd-2">
          <mxGeometry x="30" y="50" width="120" height="80" as="geometry" />
        </mxCell>
        <mxCell id="bP3Uv2tgkUZrPzE7TXMd-81" style="edgeStyle=none;curved=1;rounded=0;orthogonalLoop=1;jettySize=auto;html=1;exitX=0.5;exitY=1;exitDx=0;exitDy=0;entryX=0.5;entryY=0;entryDx=0;entryDy=0;fontSize=12;startSize=8;endSize=8;" edge="1" parent="bP3Uv2tgkUZrPzE7TXMd-2" source="bP3Uv2tgkUZrPzE7TXMd-70" target="bP3Uv2tgkUZrPzE7TXMd-80">
          <mxGeometry relative="1" as="geometry" />
        </mxCell>
        <mxCell id="bP3Uv2tgkUZrPzE7TXMd-70" value="구조체 Menu" style="shape=hexagon;perimeter=hexagonPerimeter2;whiteSpace=wrap;html=1;fixedSize=1;fontSize=16;" vertex="1" parent="bP3Uv2tgkUZrPzE7TXMd-2">
          <mxGeometry x="30" y="170" width="120" height="80" as="geometry" />
        </mxCell>
        <mxCell id="bP3Uv2tgkUZrPzE7TXMd-74" style="edgeStyle=none;curved=1;rounded=0;orthogonalLoop=1;jettySize=auto;html=1;exitX=0.5;exitY=1;exitDx=0;exitDy=0;entryX=0.5;entryY=0;entryDx=0;entryDy=0;fontSize=12;startSize=8;endSize=8;" edge="1" parent="bP3Uv2tgkUZrPzE7TXMd-2" source="bP3Uv2tgkUZrPzE7TXMd-69" target="bP3Uv2tgkUZrPzE7TXMd-70">
          <mxGeometry relative="1" as="geometry" />
        </mxCell>
        <mxCell id="bP3Uv2tgkUZrPzE7TXMd-71" value="메뉴 정보 전송" style="shape=document;whiteSpace=wrap;html=1;boundedLbl=1;fontSize=16;" vertex="1" parent="bP3Uv2tgkUZrPzE7TXMd-2">
          <mxGeometry x="30" y="390" width="120" height="80" as="geometry" />
        </mxCell>
        <mxCell id="bP3Uv2tgkUZrPzE7TXMd-72" value="주문 정보 수신" style="shape=parallelogram;perimeter=parallelogramPerimeter;whiteSpace=wrap;html=1;fixedSize=1;fontSize=16;" vertex="1" parent="bP3Uv2tgkUZrPzE7TXMd-2">
          <mxGeometry x="30" y="510" width="120" height="60" as="geometry" />
        </mxCell>
        <mxCell id="bP3Uv2tgkUZrPzE7TXMd-76" value="" style="edgeStyle=none;curved=1;rounded=0;orthogonalLoop=1;jettySize=auto;html=1;fontSize=12;startSize=8;endSize=8;entryX=0.5;entryY=0;entryDx=0;entryDy=0;exitX=0.487;exitY=0.887;exitDx=0;exitDy=0;exitPerimeter=0;" edge="1" parent="bP3Uv2tgkUZrPzE7TXMd-2" source="bP3Uv2tgkUZrPzE7TXMd-71" target="bP3Uv2tgkUZrPzE7TXMd-72">
          <mxGeometry relative="1" as="geometry" />
        </mxCell>
        <mxCell id="bP3Uv2tgkUZrPzE7TXMd-83" style="edgeStyle=none;rounded=0;orthogonalLoop=1;jettySize=auto;html=1;exitX=1;exitY=0.5;exitDx=0;exitDy=0;fontSize=12;startSize=8;endSize=8;entryX=1;entryY=0.5;entryDx=0;entryDy=0;" edge="1" parent="bP3Uv2tgkUZrPzE7TXMd-2" source="bP3Uv2tgkUZrPzE7TXMd-73" target="bP3Uv2tgkUZrPzE7TXMd-80">
          <mxGeometry relative="1" as="geometry">
            <mxPoint x="190" y="490" as="targetPoint" />
            <Array as="points">
              <mxPoint x="180" y="640" />
              <mxPoint x="180" y="480" />
              <mxPoint x="180" y="320" />
            </Array>
          </mxGeometry>
        </mxCell>
        <mxCell id="bP3Uv2tgkUZrPzE7TXMd-88" style="edgeStyle=orthogonalEdgeStyle;rounded=0;orthogonalLoop=1;jettySize=auto;html=1;exitX=0.5;exitY=1;exitDx=0;exitDy=0;entryX=0.5;entryY=0;entryDx=0;entryDy=0;" edge="1" parent="bP3Uv2tgkUZrPzE7TXMd-2" source="bP3Uv2tgkUZrPzE7TXMd-73" target="bP3Uv2tgkUZrPzE7TXMd-87">
          <mxGeometry relative="1" as="geometry" />
        </mxCell>
        <mxCell id="bP3Uv2tgkUZrPzE7TXMd-73" value="데이터 파일에 저장" style="rounded=0;whiteSpace=wrap;html=1;fontSize=16;" vertex="1" parent="bP3Uv2tgkUZrPzE7TXMd-2">
          <mxGeometry x="30" y="610" width="120" height="60" as="geometry" />
        </mxCell>
        <mxCell id="bP3Uv2tgkUZrPzE7TXMd-77" style="edgeStyle=none;curved=1;rounded=0;orthogonalLoop=1;jettySize=auto;html=1;exitX=0.5;exitY=1;exitDx=0;exitDy=0;entryX=0.5;entryY=0;entryDx=0;entryDy=0;fontSize=12;startSize=8;endSize=8;" edge="1" parent="bP3Uv2tgkUZrPzE7TXMd-2" source="bP3Uv2tgkUZrPzE7TXMd-72" target="bP3Uv2tgkUZrPzE7TXMd-73">
          <mxGeometry relative="1" as="geometry" />
        </mxCell>
        <mxCell id="bP3Uv2tgkUZrPzE7TXMd-82" style="edgeStyle=none;curved=1;rounded=0;orthogonalLoop=1;jettySize=auto;html=1;exitX=0.5;exitY=1;exitDx=0;exitDy=0;entryX=0.5;entryY=0;entryDx=0;entryDy=0;fontSize=12;startSize=8;endSize=8;" edge="1" parent="bP3Uv2tgkUZrPzE7TXMd-2" source="bP3Uv2tgkUZrPzE7TXMd-80" target="bP3Uv2tgkUZrPzE7TXMd-71">
          <mxGeometry relative="1" as="geometry" />
        </mxCell>
        <mxCell id="bP3Uv2tgkUZrPzE7TXMd-80" value="클라이언트 접속" style="rounded=0;whiteSpace=wrap;html=1;fontSize=16;" vertex="1" parent="bP3Uv2tgkUZrPzE7TXMd-2">
          <mxGeometry x="30" y="290" width="120" height="60" as="geometry" />
        </mxCell>
        <mxCell id="bP3Uv2tgkUZrPzE7TXMd-87" value="&lt;font style=&quot;font-size: 16px;&quot;&gt;화면에 영수증 출력&lt;/font&gt;" style="shape=document;whiteSpace=wrap;html=1;boundedLbl=1;" vertex="1" parent="bP3Uv2tgkUZrPzE7TXMd-2">
          <mxGeometry x="30" y="700" width="120" height="80" as="geometry" />
        </mxCell>
        <mxCell id="bP3Uv2tgkUZrPzE7TXMd-85" style="edgeStyle=none;curved=1;rounded=0;orthogonalLoop=1;jettySize=auto;html=1;exitX=0;exitY=0.25;exitDx=0;exitDy=0;entryX=1;entryY=0.5;entryDx=0;entryDy=0;fontSize=12;dashed=1;dashPattern=1 1;" edge="1" parent="WIyWlLk6GJQsqaUBKTNV-1" source="bP3Uv2tgkUZrPzE7TXMd-71" target="bP3Uv2tgkUZrPzE7TXMd-15">
          <mxGeometry relative="1" as="geometry" />
        </mxCell>
        <mxCell id="bP3Uv2tgkUZrPzE7TXMd-86" style="edgeStyle=none;curved=1;rounded=0;orthogonalLoop=1;jettySize=auto;html=1;exitX=1;exitY=0.5;exitDx=0;exitDy=0;entryX=0;entryY=0.75;entryDx=0;entryDy=0;fontSize=12;dashed=1;dashPattern=1 1;" edge="1" parent="WIyWlLk6GJQsqaUBKTNV-1" source="bP3Uv2tgkUZrPzE7TXMd-45" target="bP3Uv2tgkUZrPzE7TXMd-72">
          <mxGeometry relative="1" as="geometry" />
        </mxCell>
      </root>
    </mxGraphModel>
  </diagram>
</mxfile>
